<?xml version="1.0" standalone="no"?>
<!DOCTYPE svg PUBLIC "-//W3C//DTD SVG 20010904//EN"
 "http://www.w3.org/TR/2001/REC-SVG-20010904/DTD/svg10.dtd">
<svg version="1.0" xmlns="http://www.w3.org/2000/svg"
 width="856.000000pt" height="856.000000pt" viewBox="0 0 856.000000 856.000000"
 preserveAspectRatio="xMidYMid meet">
<metadata>
Created by potrace 1.14, written by Peter Selinger 2001-2017
</metadata>
<g transform="translate(0.000000,856.000000) scale(0.100000,-0.100000)"
fill="#000000" stroke="none">
<path d="M4222 8409 c-13 -5 -37 -11 -53 -14 -56 -10 -235 -95 -259 -124 -3
-3 -23 -19 -45 -35 -145 -106 -344 -361 -475 -611 -29 -55 -57 -106 -63 -112
-5 -7 -7 -13 -3 -13 3 0 -7 -24 -23 -52 -32 -61 -148 -349 -181 -453 -13 -38
-28 -76 -34 -84 -6 -8 -9 -15 -7 -15 3 -1 -16 -81 -26 -106 -3 -8 -8 -23 -9
-33 -2 -9 -13 -44 -24 -77 -11 -33 -20 -64 -20 -69 0 -5 -4 -21 -9 -34 l-10
-24 -83 24 c-78 23 -246 68 -292 78 -12 2 -52 11 -91 20 -38 8 -83 18 -100 21
-16 2 -37 7 -45 9 -8 2 -33 7 -55 10 -22 4 -47 8 -55 10 -8 2 -40 6 -70 10
-30 4 -66 9 -80 11 -23 4 -63 8 -185 19 -27 3 -117 5 -200 5 -252 1 -477 -39
-640 -114 -75 -35 -167 -92 -173 -108 -2 -4 -8 -8 -13 -8 -15 0 -96 -89 -133
-145 -32 -50 -90 -175 -80 -175 2 0 0 -8 -5 -17 -21 -40 -34 -232 -20 -308 4
-22 10 -56 13 -75 21 -129 91 -326 164 -460 71 -131 97 -174 167 -279 84 -126
244 -336 320 -419 28 -31 42 -72 25 -72 -8 0 -12 -10 -31 -80 -39 -137 -23
-298 40 -406 21 -35 28 -21 -90 -154 -56 -64 -174 -209 -214 -264 -11 -16 -24
-34 -30 -40 -5 -7 -14 -19 -20 -28 -5 -9 -40 -60 -76 -114 -104 -156 -220
-374 -245 -459 -2 -5 -14 -41 -28 -79 -14 -39 -28 -81 -30 -95 -3 -14 -10 -44
-15 -66 -29 -119 -28 -294 1 -400 6 -22 12 -45 14 -52 1 -6 19 -46 40 -88 46
-94 156 -212 245 -264 57 -34 129 -70 129 -64 0 3 6 0 13 -6 27 -22 220 -73
332 -87 70 -10 510 -10 575 -1 25 4 65 9 90 12 93 11 107 13 165 24 98 17 170
31 280 55 6 1 19 5 30 9 11 3 31 8 45 11 22 5 55 13 123 31 9 3 26 7 38 10 11
2 29 7 39 10 10 3 27 8 37 10 10 2 25 6 35 10 11 4 18 0 21 -12 6 -20 21 -83
23 -98 1 -5 3 -12 4 -15 1 -3 4 -16 7 -30 8 -41 11 -55 14 -55 1 0 3 -9 5 -20
2 -11 7 -36 13 -55 5 -19 18 -69 30 -110 35 -130 133 -418 175 -516 26 -58
179 -367 188 -379 15 -18 58 -86 58 -91 0 -3 5 -10 10 -17 6 -7 27 -34 48 -62
268 -358 589 -492 916 -381 59 20 202 95 215 113 3 5 24 21 46 38 54 40 170
157 222 225 24 30 47 60 53 67 13 16 120 180 142 218 10 17 38 70 63 119 25
49 50 95 56 102 6 7 12 19 13 26 1 7 16 42 32 78 17 36 48 108 68 160 21 52
42 104 46 115 5 11 14 38 21 60 6 22 15 45 19 50 5 6 8 12 8 15 -1 3 9 37 22
75 22 68 36 89 52 79 14 -9 86 -10 81 -1 -3 5 4 6 15 3 49 -16 200 38 283 99
l56 42 73 -18 c81 -21 300 -68 340 -74 14 -2 40 -6 58 -9 79 -14 94 -16 139
-21 27 -3 59 -7 73 -10 119 -23 527 -22 635 1 17 4 41 8 55 10 14 1 25 3 25 4
0 1 9 3 20 5 98 18 221 64 315 118 236 134 353 339 352 617 0 47 -2 101 -6
120 -17 99 -35 179 -54 230 -9 25 -17 48 -17 52 0 3 -3 10 -7 14 -5 4 -8 14
-8 22 0 50 -234 469 -322 577 -5 6 -32 42 -60 80 -29 39 -57 75 -63 82 -5 6
-21 26 -35 44 -77 103 -218 256 -423 462 l-159 159 124 126 c159 163 172 176
243 257 33 38 68 77 78 87 9 10 17 22 17 27 0 5 4 11 9 13 8 2 68 77 188 233
5 6 31 44 58 85 28 41 53 77 58 78 4 2 7 8 7 14 0 5 8 22 19 36 57 83 233 442
216 442 -2 0 2 15 10 34 12 29 31 103 51 201 9 48 11 216 2 274 -27 175 -129
340 -273 442 -109 78 -272 146 -392 164 -11 2 -29 6 -40 9 -10 3 -40 7 -68 10
-27 3 -77 8 -110 12 -147 16 -499 -1 -659 -32 -11 -2 -38 -6 -61 -9 -53 -8
-287 -55 -296 -60 -7 -5 -49 41 -49 54 0 16 -126 127 -175 154 -70 39 -163 65
-254 71 -13 0 -25 8 -27 16 -2 14 -77 233 -91 270 -4 8 -7 17 -8 20 -1 3 -7
19 -14 35 -8 17 -17 39 -21 50 -29 74 -153 328 -173 355 -7 8 -17 24 -23 35
-27 49 -39 70 -44 75 -3 3 -26 34 -52 70 -102 144 -238 275 -348 336 -19 10
-37 22 -40 25 -6 7 -79 36 -140 56 -52 17 -263 25 -298 12z m233 -246 c119
-35 238 -122 344 -253 20 -25 38 -47 41 -50 52 -52 206 -330 270 -490 12 -30
28 -68 35 -85 7 -16 30 -79 50 -140 20 -60 40 -118 46 -127 7 -14 -2 -25 -48
-60 -134 -98 -210 -220 -229 -363 -1 -11 -3 -22 -4 -25 -1 -3 -2 -30 -1 -61 1
-55 0 -57 -31 -69 -18 -7 -47 -19 -65 -26 -17 -8 -33 -14 -36 -14 -2 0 -31
-12 -63 -27 -33 -15 -61 -27 -64 -28 -17 -5 -272 -121 -312 -141 -15 -8 -31
-15 -35 -16 -5 -1 -50 -23 -101 -49 l-94 -47 -76 35 c-43 19 -106 48 -142 65
-35 16 -86 39 -114 49 -27 11 -69 29 -92 40 -24 10 -45 19 -47 19 -3 0 -22 8
-43 17 -22 9 -41 17 -44 18 -9 3 -45 17 -65 25 -32 14 -143 55 -230 86 -79 28
-99 40 -89 56 6 9 42 129 49 162 7 30 95 295 122 366 125 331 292 647 433 822
67 82 186 193 253 237 128 83 262 109 382 74z m2498 -1527 c133 -8 342 -51
371 -78 6 -4 16 -8 24 -8 20 0 142 -82 180 -121 35 -36 67 -90 89 -149 72
-200 -9 -513 -225 -864 -30 -50 -58 -93 -61 -96 -3 -3 -26 -34 -51 -70 -24
-36 -48 -69 -52 -75 -5 -5 -36 -46 -70 -90 -35 -44 -65 -82 -68 -85 -3 -3 -30
-34 -60 -70 -143 -168 -406 -434 -421 -424 -7 4 -67 53 -133 108 -67 56 -138
115 -159 131 -21 17 -44 35 -50 40 -13 11 -172 134 -223 172 -98 72 -135 100
-154 113 -92 62 -104 76 -106 116 -1 21 -5 84 -9 139 -4 55 -8 118 -10 140 -5
71 -15 179 -20 215 -3 19 -7 60 -10 90 -9 85 -14 123 -19 146 -2 11 -6 40 -7
64 -3 42 -3 43 46 68 68 35 175 145 209 215 15 31 28 58 27 61 0 3 6 20 14 39
7 18 17 65 20 105 4 39 12 72 16 72 13 0 16 1 51 11 18 5 44 11 58 14 14 3 36
7 50 10 56 11 138 25 185 30 28 4 57 8 65 10 17 4 116 14 203 20 33 2 60 5 62
7 4 4 114 1 238 -6z m-4973 -120 c70 -6 228 -28 290 -41 57 -11 87 -16 125
-21 21 -3 43 -8 48 -11 5 -3 38 -12 75 -20 37 -8 75 -16 85 -19 9 -2 27 -6 38
-9 12 -2 36 -9 54 -15 18 -6 41 -12 51 -14 11 -2 39 -10 64 -17 25 -7 47 -13
50 -13 3 -1 19 -7 36 -14 l32 -13 -13 -44 c-12 -40 -23 -88 -30 -142 -2 -12
-5 -25 -8 -30 -3 -4 -8 -30 -11 -57 -4 -27 -9 -52 -11 -55 -1 -3 -6 -24 -9
-46 -4 -22 -8 -47 -11 -55 -4 -14 -11 -59 -20 -120 -2 -14 -6 -38 -9 -55 -3
-16 -8 -48 -11 -70 -2 -22 -7 -53 -10 -70 -4 -16 -8 -47 -10 -70 -3 -22 -6
-49 -9 -60 -6 -28 -20 -169 -18 -177 1 -4 -22 -24 -51 -45 -68 -49 -318 -234
-337 -250 -8 -6 -35 -28 -60 -47 -25 -20 -58 -47 -75 -60 -87 -71 -73 -67
-127 -35 -96 57 -234 83 -349 66 -47 -7 -142 -41 -184 -65 -18 -11 -37 -17
-42 -13 -8 5 -100 113 -137 161 -219 283 -357 518 -431 737 -14 43 -28 89 -31
103 -2 14 -9 50 -15 80 -10 52 -8 197 5 248 11 48 60 134 100 176 59 63 184
139 236 144 3 0 18 6 35 12 44 17 157 39 233 46 37 4 69 8 71 10 4 4 326 -4
391 -10z m1340 -336 c148 -53 293 -111 304 -121 6 -5 15 -9 22 -9 7 0 45 -15
86 -34 40 -19 91 -42 113 -50 l39 -17 -24 -13 c-14 -7 -45 -24 -70 -38 -25
-14 -72 -40 -105 -58 -33 -18 -80 -45 -105 -60 -25 -15 -90 -54 -145 -86 -55
-32 -102 -61 -105 -64 -3 -4 -12 -9 -20 -12 -8 -3 -78 -47 -155 -96 -77 -50
-142 -86 -144 -81 -1 6 2 38 8 72 6 34 13 80 16 102 3 22 14 92 25 155 28 163
28 165 30 165 1 0 3 11 6 25 2 14 13 70 25 125 12 55 23 108 24 118 7 32 15
37 43 26 15 -6 74 -28 132 -49z m1755 4 c66 -86 172 -155 283 -184 45 -12 86
-18 92 -15 16 10 20 -8 44 -220 2 -16 7 -64 11 -105 4 -41 9 -88 11 -105 2
-16 6 -70 10 -120 3 -49 6 -94 7 -100 3 -18 -21 -6 -140 71 -184 119 -192 124
-203 124 -5 0 -10 5 -10 10 0 6 -5 10 -11 10 -6 0 -29 13 -52 28 -23 16 -69
43 -102 62 -33 18 -76 42 -95 53 -19 11 -55 31 -80 45 -25 14 -58 33 -75 43
-16 10 -64 35 -106 57 -167 89 -214 114 -218 118 -2 2 40 24 95 50 93 43 114
52 197 88 17 8 59 26 92 41 33 15 85 36 115 47 30 11 58 23 62 27 19 17 48 7
73 -25z m-737 -454 c97 -49 206 -106 242 -126 36 -20 88 -48 115 -63 129 -72
250 -144 253 -152 2 -5 11 -9 20 -9 8 0 23 -6 31 -13 9 -7 70 -47 136 -87 143
-88 384 -246 404 -265 10 -10 15 -45 17 -127 1 -62 3 -143 5 -179 1 -36 0 -70
-4 -75 -3 -6 -2 -16 3 -24 4 -7 5 -23 0 -35 -5 -12 -5 -27 -1 -33 3 -6 5 -28
4 -49 -1 -21 -5 -126 -8 -233 -5 -187 -8 -260 -21 -435 -11 -166 -13 -186 -18
-203 -8 -22 -486 -336 -656 -430 -19 -11 -106 -60 -192 -110 -87 -50 -158 -88
-158 -84 0 4 -4 2 -8 -3 -4 -6 -29 -22 -57 -37 -253 -134 -304 -154 -320 -128
-3 5 -27 20 -53 33 -107 54 -302 164 -380 213 -29 19 -54 34 -57 34 -9 0 -359
222 -491 312 -75 51 -144 98 -153 103 -44 27 -61 43 -69 66 -9 26 -8 723 2
904 13 246 27 430 41 569 4 32 31 76 49 76 2 0 46 28 98 63 51 35 129 85 173
112 44 27 82 53 83 57 2 5 10 8 18 8 8 0 14 5 14 10 0 6 4 10 10 10 5 0 56 28
112 63 107 66 283 167 403 233 102 55 230 123 233 124 1 0 82 -40 180 -90z
m-1632 -892 c-4 -46 -9 -108 -11 -138 -11 -121 -17 -310 -20 -613 -1 -175 -4
-320 -7 -322 -4 -4 -297 225 -347 271 -14 13 -29 24 -33 24 -4 0 4 22 18 50
29 59 55 140 48 152 -3 4 -1 8 4 8 4 0 7 42 6 93 -1 70 -8 111 -28 172 -26 76
-27 80 -9 92 10 8 25 19 33 26 8 6 35 28 60 46 25 19 52 41 60 49 20 18 224
172 228 172 2 0 1 -37 -2 -82z m3264 -132 c110 -83 398 -317 439 -356 l23 -23
-33 -30 c-19 -16 -50 -43 -70 -60 -20 -18 -55 -48 -79 -67 -24 -19 -48 -40
-54 -45 -61 -57 -416 -328 -417 -318 -2 17 -1 62 6 178 4 66 8 185 10 265 2
80 4 145 5 145 5 0 1 386 -4 393 -3 6 -3 17 0 26 7 19 8 18 174 -108z m782
-672 c171 -168 291 -297 418 -451 89 -107 279 -372 303 -423 4 -8 16 -28 27
-45 18 -28 120 -232 120 -240 0 -2 5 -16 12 -32 6 -15 12 -30 13 -33 1 -3 11
-36 23 -75 32 -108 41 -172 38 -275 -4 -104 -24 -170 -76 -246 -51 -73 -157
-147 -259 -180 -25 -8 -53 -18 -61 -21 -20 -8 -21 -8 -125 -29 -99 -19 -425
-26 -565 -11 -41 5 -89 10 -105 11 -17 2 -44 6 -60 10 -17 3 -48 8 -70 11 -22
3 -74 12 -115 20 -101 21 -94 19 -186 40 l-81 18 9 36 c11 42 19 212 10 226
-3 5 -7 22 -9 39 -6 58 -71 173 -136 239 -59 61 -153 127 -180 127 -7 0 -21 6
-30 13 -13 10 -15 19 -7 52 5 22 12 67 15 100 4 33 8 62 10 65 4 6 11 61 20
145 3 22 7 51 10 65 4 22 14 109 20 180 1 14 4 27 5 30 1 3 2 20 2 38 0 30 7
39 76 89 119 87 356 266 362 272 4 5 152 125 234 191 17 13 41 34 53 47 12 13
25 23 28 23 3 0 16 10 28 23 37 38 89 78 98 75 5 -2 64 -57 131 -124z m-5029
-202 c23 -4 83 -6 132 -5 75 1 104 6 170 32 44 17 83 31 88 31 4 0 16 -9 27
-20 15 -15 265 -216 340 -273 9 -7 36 -28 60 -47 25 -20 64 -49 88 -64 24 -16
47 -37 51 -45 5 -9 12 -68 15 -131 4 -63 9 -142 12 -175 2 -33 6 -82 8 -110 2
-27 7 -70 10 -95 3 -25 8 -72 11 -104 3 -33 7 -71 9 -85 4 -25 10 -70 22 -171
3 -25 7 -52 9 -60 2 -8 7 -35 11 -60 3 -25 7 -54 9 -65 18 -108 18 -113 -7
-121 -12 -4 -26 -9 -30 -10 -5 -1 -9 -2 -10 -4 -2 -1 -10 -3 -18 -5 -9 -1 -51
-13 -95 -25 -103 -28 -88 -24 -250 -59 -155 -33 -177 -37 -244 -47 -25 -4 -55
-8 -66 -10 -20 -4 -53 -8 -160 -20 -70 -8 -406 -13 -418 -7 -5 3 -32 7 -60 9
-73 5 -103 10 -172 29 -225 59 -357 164 -410 324 -23 71 -27 217 -8 301 7 36
16 74 18 84 17 74 39 129 117 286 54 110 212 370 238 390 3 3 23 30 45 60 51
70 228 282 268 320 18 17 22 17 83 -11 36 -17 84 -33 107 -37z m3764 -549 c-3
-5 -8 -33 -12 -63 -3 -30 -8 -66 -10 -80 -4 -22 -12 -84 -20 -160 -2 -14 -4
-25 -5 -25 -1 0 -3 -16 -6 -35 -2 -19 -9 -58 -14 -85 -10 -48 -12 -51 -53 -61
-67 -17 -68 -18 -122 -46 -96 -51 -201 -158 -227 -230 -6 -16 -14 -28 -19 -28
-4 0 -6 -6 -3 -14 3 -7 -2 -16 -10 -19 -14 -6 -193 68 -375 155 -46 22 -104
48 -127 59 -24 10 -44 20 -44 23 0 5 61 40 185 106 117 63 479 272 485 280 3
4 15 10 28 14 12 4 22 12 22 17 0 5 4 9 10 9 5 0 76 43 157 95 138 88 171 106
160 88z m-2432 -96 c50 -33 109 -72 132 -88 23 -16 44 -29 48 -29 3 0 21 -11
38 -24 41 -30 348 -214 495 -296 62 -35 109 -67 105 -71 -36 -35 -813 -343
-828 -328 -2 2 -5 20 -8 39 -18 114 -39 259 -42 285 -1 17 -6 50 -10 75 -4 25
-9 65 -11 90 -9 91 -12 115 -13 115 -1 0 -4 29 -6 65 -4 68 -14 183 -16 197
-4 26 2 43 14 37 6 -5 53 -35 102 -67z m1233 -711 c116 -58 233 -113 402 -189
30 -13 96 -41 145 -62 133 -54 135 -56 135 -82 0 -13 7 -37 15 -53 9 -17 15
-31 14 -32 -1 -2 6 -21 16 -43 22 -47 69 -109 126 -163 l41 -39 -28 -84 c-16
-46 -29 -86 -29 -89 0 -3 -5 -18 -12 -35 -17 -45 -26 -69 -28 -75 -4 -11 -19
-47 -36 -89 -11 -24 -19 -47 -19 -52 0 -20 -178 -384 -211 -431 -11 -14 -19
-28 -19 -31 0 -3 -16 -29 -36 -58 -168 -253 -328 -401 -492 -458 -76 -26 -132
-31 -209 -19 -60 9 -176 61 -226 101 -101 79 -227 230 -308 369 -44 76 -149
278 -143 278 1 0 -13 34 -31 75 -19 41 -32 75 -29 75 4 0 2 6 -3 13 -6 6 -20
41 -32 77 -12 36 -26 74 -30 85 -5 11 -12 29 -14 40 -3 11 -24 83 -46 159 -23
76 -43 148 -45 160 -2 12 -12 50 -21 86 -9 36 -19 76 -22 90 -2 14 -8 42 -13
63 -8 36 -7 38 27 52 20 8 38 15 42 15 7 0 342 125 386 145 17 7 66 27 110 45
44 18 103 42 130 55 28 12 95 42 150 66 55 24 123 56 150 70 28 15 53 27 57
28 3 1 65 -28 136 -63z"/>
</g>
</svg>
