<?xml version="1.0" encoding="UTF-8" standalone="no"?>
<!DOCTYPE svg PUBLIC "-//W3C//DTD SVG 1.1//EN" "http://www.w3.org/Graphics/SVG/1.1/DTD/svg11.dtd">
<svg width="100%" height="100%" viewBox="0 0 2164 510" version="1.1" xmlns="http://www.w3.org/2000/svg" xmlns:xlink="http://www.w3.org/1999/xlink" xml:space="preserve" xmlns:serif="http://www.serif.com/" style="fill-rule:evenodd;clip-rule:evenodd;stroke-miterlimit:10;">
    <g transform="matrix(1.33333,0,0,1.33333,0,0)">
        <g id="レイヤー_2" transform="matrix(1,0,0,1,315,-56)">
            <g transform="matrix(1,0,0,1,75.4716,348.918)">
                <g transform="matrix(208.125,0,0,208.125,0,2.84217e-14)">
                    <path d="M0.446,-0.379L0.169,-0.804L0.205,-0.804L0.483,-0.379L0.446,-0.379ZM0.288,-0.379L0.011,-0.804L0.047,-0.804L0.324,-0.379L0.288,-0.379ZM0.368,-0.379L0.09,-0.804L0.126,-0.804L0.403,-0.379L0.368,-0.379ZM0.424,-0.536L0.405,-0.564L0.565,-0.804L0.601,-0.804L0.424,-0.536ZM0.464,-0.474L0.446,-0.503L0.644,-0.804L0.68,-0.804L0.464,-0.474ZM0.504,-0.413L0.485,-0.441L0.723,-0.804L0.759,-0.804L0.504,-0.413ZM0.436,-0L0.436,-0.342L0.466,-0.342L0.466,-0L0.436,-0ZM0.304,-0L0.304,-0.342L0.334,-0.342L0.334,-0L0.304,-0ZM0.37,-0L0.37,-0.342L0.4,-0.342L0.4,-0L0.37,-0Z" style="fill:rgb(225,225,225);fill-rule:nonzero;"/>
                </g>
            </g>
            <g transform="matrix(1,0,0,1,219.472,348.918)">
                <g transform="matrix(208.125,0,0,208.125,0,2.84217e-14)">
                    <path d="M0.351,-0.117C0.313,-0.117 0.282,-0.125 0.257,-0.14C0.232,-0.155 0.213,-0.176 0.201,-0.202C0.188,-0.227 0.182,-0.256 0.182,-0.287L0.182,-0.804L0.212,-0.804L0.212,-0.287C0.212,-0.248 0.223,-0.215 0.245,-0.188C0.267,-0.161 0.302,-0.147 0.351,-0.147C0.4,-0.147 0.435,-0.161 0.457,-0.188C0.479,-0.215 0.49,-0.248 0.49,-0.287L0.49,-0.804L0.52,-0.804L0.52,-0.287C0.52,-0.256 0.514,-0.227 0.502,-0.202C0.489,-0.176 0.47,-0.155 0.446,-0.14C0.421,-0.125 0.389,-0.117 0.351,-0.117ZM0.351,0.015C0.289,0.015 0.236,0.001 0.191,-0.026C0.146,-0.053 0.111,-0.089 0.087,-0.135C0.062,-0.181 0.05,-0.232 0.05,-0.287L0.05,-0.804L0.08,-0.804L0.08,-0.287C0.08,-0.237 0.091,-0.191 0.113,-0.15C0.134,-0.109 0.165,-0.076 0.206,-0.052C0.246,-0.027 0.294,-0.015 0.351,-0.015C0.408,-0.015 0.456,-0.027 0.497,-0.052C0.537,-0.076 0.568,-0.109 0.59,-0.15C0.611,-0.191 0.622,-0.237 0.622,-0.287L0.622,-0.804L0.652,-0.804L0.652,-0.287C0.652,-0.232 0.64,-0.181 0.616,-0.135C0.591,-0.089 0.557,-0.053 0.512,-0.026C0.467,0.001 0.414,0.015 0.351,0.015ZM0.351,-0.051C0.301,-0.051 0.259,-0.062 0.224,-0.083C0.189,-0.104 0.162,-0.133 0.144,-0.169C0.125,-0.204 0.116,-0.244 0.116,-0.287L0.116,-0.804L0.146,-0.804L0.146,-0.287C0.146,-0.249 0.154,-0.215 0.17,-0.184C0.185,-0.153 0.208,-0.128 0.239,-0.109C0.27,-0.09 0.307,-0.081 0.351,-0.081C0.396,-0.081 0.433,-0.09 0.464,-0.109C0.494,-0.128 0.517,-0.153 0.533,-0.184C0.548,-0.215 0.556,-0.249 0.556,-0.287L0.556,-0.804L0.586,-0.804L0.586,-0.287C0.586,-0.244 0.577,-0.204 0.559,-0.169C0.54,-0.133 0.514,-0.104 0.479,-0.083C0.444,-0.062 0.401,-0.051 0.351,-0.051Z" style="fill:rgb(225,225,225);fill-rule:nonzero;"/>
                </g>
            </g>
            <g transform="matrix(1,0,0,1,355.353,348.918)">
                <g transform="matrix(208.125,0,0,208.125,0,2.84217e-14)">
                    <path d="M0.01,-0.774L0.01,-0.804L0.631,-0.804L0.631,-0.774L0.01,-0.774ZM0.01,-0.708L0.01,-0.738L0.631,-0.738L0.631,-0.708L0.01,-0.708ZM0.01,-0.642L0.01,-0.672L0.631,-0.672L0.631,-0.642L0.01,-0.642ZM0.372,-0L0.372,-0.61L0.402,-0.61L0.402,-0L0.372,-0ZM0.24,-0L0.24,-0.61L0.27,-0.61L0.27,-0L0.24,-0ZM0.306,-0L0.306,-0.61L0.336,-0.61L0.336,-0L0.306,-0Z" style="fill:rgb(225,225,225);fill-rule:nonzero;"/>
                </g>
            </g>
            <g transform="matrix(1,0,0,1,444.297,348.918)">
                <g transform="matrix(208.125,0,0,208.125,0,2.84217e-14)">
                    <path d="M0.16,-0L0.451,-0.804L0.483,-0.804L0.192,-0L0.16,-0ZM0.02,-0L0.311,-0.804L0.342,-0.804L0.052,-0L0.02,-0ZM0.09,-0L0.38,-0.804L0.413,-0.804L0.122,-0L0.09,-0ZM0.746,-0L0.485,-0.721L0.501,-0.766L0.778,-0L0.746,-0ZM0.676,-0L0.451,-0.623L0.466,-0.669L0.708,-0L0.676,-0ZM0.606,-0L0.416,-0.526L0.432,-0.571L0.638,-0L0.606,-0ZM0.323,-0.266L0.334,-0.296L0.466,-0.296L0.477,-0.266L0.323,-0.266ZM0.299,-0.199L0.31,-0.229L0.49,-0.229L0.501,-0.199L0.299,-0.199ZM0.275,-0.133L0.286,-0.163L0.514,-0.163L0.525,-0.133L0.275,-0.133Z" style="fill:rgb(225,225,225);fill-rule:nonzero;"/>
                </g>
            </g>
            <g transform="matrix(1,0,0,1,621.142,338.918)">
                <g transform="matrix(208.125,0,0,208.125,0,2.84217e-14)">
                    <path d="M0.447,-0.117C0.388,-0.117 0.337,-0.13 0.294,-0.156C0.251,-0.181 0.219,-0.216 0.196,-0.259C0.173,-0.302 0.162,-0.35 0.162,-0.402C0.162,-0.455 0.173,-0.502 0.196,-0.546C0.219,-0.588 0.251,-0.623 0.294,-0.649C0.337,-0.674 0.388,-0.687 0.447,-0.687C0.49,-0.687 0.529,-0.68 0.564,-0.666C0.599,-0.651 0.628,-0.631 0.652,-0.606L0.631,-0.585C0.609,-0.607 0.583,-0.624 0.552,-0.637C0.521,-0.65 0.486,-0.656 0.447,-0.656C0.394,-0.656 0.348,-0.645 0.31,-0.622C0.271,-0.599 0.242,-0.568 0.222,-0.53C0.202,-0.491 0.192,-0.449 0.192,-0.402C0.192,-0.355 0.202,-0.313 0.222,-0.275C0.242,-0.236 0.271,-0.206 0.31,-0.183C0.348,-0.16 0.394,-0.148 0.447,-0.148C0.486,-0.148 0.521,-0.154 0.552,-0.167C0.583,-0.18 0.609,-0.197 0.631,-0.219L0.652,-0.198C0.628,-0.173 0.599,-0.154 0.564,-0.139C0.529,-0.124 0.49,-0.117 0.447,-0.117ZM0.447,-0.051C0.394,-0.051 0.345,-0.06 0.303,-0.079C0.26,-0.097 0.223,-0.122 0.192,-0.154C0.161,-0.186 0.137,-0.223 0.121,-0.266C0.104,-0.308 0.096,-0.353 0.096,-0.402C0.096,-0.451 0.104,-0.496 0.121,-0.539C0.137,-0.581 0.161,-0.618 0.192,-0.651C0.223,-0.683 0.26,-0.708 0.303,-0.726C0.345,-0.744 0.394,-0.753 0.447,-0.753C0.5,-0.753 0.547,-0.744 0.59,-0.727C0.632,-0.709 0.668,-0.684 0.699,-0.653L0.677,-0.631C0.65,-0.66 0.616,-0.682 0.578,-0.698C0.539,-0.714 0.495,-0.722 0.447,-0.722C0.382,-0.722 0.325,-0.708 0.277,-0.679C0.228,-0.65 0.191,-0.612 0.165,-0.564C0.139,-0.515 0.126,-0.461 0.126,-0.402C0.126,-0.343 0.139,-0.29 0.165,-0.241C0.191,-0.192 0.228,-0.154 0.277,-0.125C0.325,-0.096 0.382,-0.082 0.447,-0.082C0.495,-0.082 0.539,-0.09 0.578,-0.106C0.616,-0.122 0.65,-0.144 0.677,-0.173L0.699,-0.151C0.668,-0.12 0.632,-0.096 0.59,-0.078C0.547,-0.06 0.5,-0.051 0.447,-0.051ZM0.447,0.015C0.384,0.015 0.327,0.004 0.277,-0.018C0.226,-0.039 0.182,-0.069 0.145,-0.107C0.108,-0.145 0.08,-0.189 0.06,-0.24C0.04,-0.29 0.03,-0.344 0.03,-0.402C0.03,-0.46 0.04,-0.514 0.06,-0.565C0.08,-0.615 0.108,-0.659 0.145,-0.697C0.182,-0.735 0.226,-0.765 0.277,-0.787C0.327,-0.808 0.384,-0.819 0.447,-0.819C0.508,-0.819 0.564,-0.809 0.615,-0.788C0.666,-0.767 0.709,-0.737 0.746,-0.7L0.725,-0.679C0.691,-0.713 0.651,-0.74 0.604,-0.76C0.557,-0.779 0.504,-0.789 0.447,-0.789C0.388,-0.789 0.335,-0.779 0.288,-0.759C0.241,-0.739 0.2,-0.711 0.166,-0.676C0.132,-0.641 0.106,-0.6 0.088,-0.553C0.069,-0.505 0.06,-0.455 0.06,-0.402C0.06,-0.349 0.069,-0.299 0.088,-0.252C0.106,-0.204 0.132,-0.163 0.166,-0.128C0.2,-0.093 0.241,-0.065 0.288,-0.045C0.335,-0.025 0.388,-0.015 0.447,-0.015C0.504,-0.015 0.557,-0.025 0.604,-0.045C0.651,-0.064 0.691,-0.091 0.725,-0.125L0.746,-0.104C0.709,-0.067 0.666,-0.038 0.615,-0.017C0.564,0.004 0.508,0.015 0.447,0.015Z" style="fill:rgb(225,225,225);fill-rule:nonzero;"/>
                </g>
            </g>
            <g transform="matrix(1,0,0,1,758.142,338.918)">
                <g transform="matrix(208.125,0,0,208.125,0,2.84217e-14)">
                    <path d="M0.834,-0.402C0.834,-0.455 0.825,-0.505 0.807,-0.553C0.788,-0.6 0.762,-0.641 0.728,-0.676C0.694,-0.711 0.653,-0.739 0.606,-0.759C0.559,-0.779 0.506,-0.789 0.447,-0.789C0.388,-0.789 0.335,-0.779 0.288,-0.759C0.241,-0.739 0.2,-0.711 0.166,-0.676C0.132,-0.641 0.106,-0.6 0.088,-0.553C0.069,-0.505 0.06,-0.455 0.06,-0.402C0.06,-0.349 0.069,-0.299 0.088,-0.252C0.106,-0.204 0.132,-0.163 0.166,-0.128C0.2,-0.093 0.241,-0.065 0.288,-0.045C0.335,-0.025 0.388,-0.015 0.447,-0.015C0.506,-0.015 0.559,-0.025 0.606,-0.045C0.653,-0.065 0.694,-0.093 0.728,-0.128C0.762,-0.163 0.788,-0.204 0.807,-0.252C0.825,-0.299 0.834,-0.349 0.834,-0.402ZM0.768,-0.402C0.768,-0.461 0.755,-0.515 0.729,-0.564C0.703,-0.612 0.666,-0.65 0.618,-0.679C0.57,-0.708 0.513,-0.722 0.447,-0.722C0.382,-0.722 0.325,-0.708 0.277,-0.679C0.228,-0.65 0.191,-0.612 0.165,-0.564C0.139,-0.515 0.126,-0.461 0.126,-0.402C0.126,-0.343 0.139,-0.29 0.165,-0.241C0.191,-0.192 0.228,-0.154 0.277,-0.125C0.325,-0.096 0.382,-0.082 0.447,-0.082C0.513,-0.082 0.57,-0.096 0.618,-0.125C0.666,-0.154 0.703,-0.192 0.729,-0.241C0.755,-0.29 0.768,-0.343 0.768,-0.402ZM0.702,-0.402C0.702,-0.449 0.692,-0.491 0.672,-0.53C0.652,-0.568 0.623,-0.599 0.585,-0.622C0.547,-0.645 0.501,-0.656 0.447,-0.656C0.394,-0.656 0.348,-0.645 0.31,-0.622C0.271,-0.599 0.242,-0.568 0.222,-0.53C0.202,-0.491 0.192,-0.449 0.192,-0.402C0.192,-0.355 0.202,-0.313 0.222,-0.275C0.242,-0.236 0.271,-0.206 0.31,-0.183C0.348,-0.16 0.394,-0.148 0.447,-0.148C0.501,-0.148 0.547,-0.16 0.585,-0.183C0.623,-0.206 0.652,-0.236 0.672,-0.275C0.692,-0.313 0.702,-0.355 0.702,-0.402ZM0.447,-0.117C0.388,-0.117 0.337,-0.13 0.294,-0.156C0.251,-0.181 0.219,-0.216 0.196,-0.259C0.173,-0.302 0.162,-0.35 0.162,-0.402C0.162,-0.455 0.173,-0.502 0.196,-0.546C0.219,-0.588 0.251,-0.623 0.294,-0.649C0.337,-0.674 0.388,-0.687 0.447,-0.687C0.506,-0.687 0.557,-0.674 0.6,-0.649C0.643,-0.623 0.675,-0.588 0.698,-0.546C0.721,-0.502 0.732,-0.455 0.732,-0.402C0.732,-0.35 0.721,-0.302 0.698,-0.259C0.675,-0.216 0.643,-0.181 0.6,-0.156C0.557,-0.13 0.506,-0.117 0.447,-0.117ZM0.447,-0.051C0.394,-0.051 0.345,-0.06 0.303,-0.079C0.26,-0.097 0.223,-0.122 0.192,-0.154C0.161,-0.186 0.137,-0.223 0.121,-0.266C0.104,-0.308 0.096,-0.353 0.096,-0.402C0.096,-0.451 0.104,-0.496 0.121,-0.539C0.137,-0.581 0.161,-0.618 0.192,-0.651C0.223,-0.683 0.26,-0.708 0.303,-0.726C0.345,-0.744 0.394,-0.753 0.447,-0.753C0.5,-0.753 0.549,-0.744 0.592,-0.726C0.635,-0.708 0.672,-0.683 0.703,-0.651C0.733,-0.618 0.757,-0.581 0.774,-0.539C0.79,-0.496 0.798,-0.451 0.798,-0.402C0.798,-0.353 0.79,-0.308 0.774,-0.266C0.757,-0.223 0.733,-0.186 0.703,-0.154C0.672,-0.122 0.635,-0.097 0.592,-0.079C0.549,-0.06 0.5,-0.051 0.447,-0.051ZM0.447,0.015C0.384,0.015 0.327,0.004 0.277,-0.018C0.226,-0.039 0.182,-0.069 0.145,-0.107C0.108,-0.145 0.08,-0.189 0.06,-0.24C0.04,-0.29 0.03,-0.344 0.03,-0.402C0.03,-0.46 0.04,-0.514 0.06,-0.565C0.08,-0.615 0.108,-0.659 0.145,-0.697C0.182,-0.735 0.226,-0.765 0.277,-0.787C0.327,-0.808 0.384,-0.819 0.447,-0.819C0.51,-0.819 0.567,-0.808 0.618,-0.787C0.669,-0.765 0.712,-0.735 0.749,-0.697C0.786,-0.659 0.814,-0.615 0.834,-0.565C0.854,-0.514 0.864,-0.46 0.864,-0.402C0.864,-0.344 0.854,-0.29 0.834,-0.24C0.814,-0.189 0.786,-0.145 0.749,-0.107C0.712,-0.069 0.669,-0.039 0.618,-0.018C0.567,0.004 0.51,0.015 0.447,0.015Z" style="fill:rgb(225,225,225);fill-rule:nonzero;"/>
                </g>
            </g>
            <g transform="matrix(1,0,0,1,925.924,341.31)">
                <g transform="matrix(208.125,0,0,208.125,0,2.84217e-14)">
                    <path d="M0.248,-0L0.248,-0.03L0.358,-0.03C0.415,-0.03 0.466,-0.039 0.514,-0.058C0.56,-0.076 0.601,-0.102 0.636,-0.135C0.671,-0.168 0.698,-0.208 0.717,-0.253C0.736,-0.298 0.745,-0.348 0.745,-0.402C0.745,-0.456 0.736,-0.506 0.717,-0.551C0.698,-0.596 0.671,-0.636 0.636,-0.669C0.601,-0.702 0.56,-0.728 0.514,-0.747C0.466,-0.765 0.415,-0.774 0.358,-0.774L0.248,-0.774L0.248,-0.804L0.359,-0.804C0.42,-0.804 0.475,-0.794 0.526,-0.774C0.577,-0.754 0.621,-0.726 0.658,-0.69C0.695,-0.654 0.724,-0.612 0.745,-0.563C0.766,-0.514 0.776,-0.461 0.776,-0.402C0.776,-0.343 0.766,-0.29 0.745,-0.241C0.724,-0.192 0.695,-0.149 0.658,-0.113C0.621,-0.077 0.577,-0.049 0.526,-0.03C0.475,-0.01 0.42,-0 0.359,-0L0.248,-0ZM0.182,-0L0.182,-0.804L0.212,-0.804L0.212,-0L0.182,-0ZM0.05,-0L0.05,-0.804L0.08,-0.804L0.08,-0L0.05,-0ZM0.116,-0L0.116,-0.804L0.146,-0.804L0.146,-0L0.116,-0ZM0.248,-0.066L0.248,-0.096L0.358,-0.096C0.421,-0.096 0.477,-0.109 0.525,-0.135C0.573,-0.161 0.611,-0.197 0.638,-0.244C0.665,-0.29 0.679,-0.343 0.679,-0.402C0.679,-0.462 0.665,-0.515 0.638,-0.561C0.611,-0.607 0.573,-0.643 0.525,-0.669C0.477,-0.695 0.421,-0.708 0.358,-0.708L0.248,-0.708L0.248,-0.738L0.359,-0.738C0.428,-0.738 0.488,-0.724 0.541,-0.695C0.594,-0.666 0.635,-0.626 0.665,-0.576C0.695,-0.525 0.71,-0.467 0.71,-0.402C0.71,-0.337 0.695,-0.279 0.665,-0.228C0.635,-0.177 0.594,-0.138 0.541,-0.109C0.488,-0.08 0.428,-0.066 0.359,-0.066L0.248,-0.066ZM0.248,-0.132L0.248,-0.162L0.358,-0.162C0.409,-0.162 0.453,-0.172 0.491,-0.192C0.529,-0.212 0.559,-0.24 0.58,-0.277C0.601,-0.313 0.612,-0.355 0.612,-0.402C0.612,-0.45 0.601,-0.492 0.58,-0.528C0.559,-0.564 0.529,-0.592 0.491,-0.612C0.453,-0.632 0.409,-0.642 0.358,-0.642L0.248,-0.642L0.248,-0.672L0.359,-0.672C0.415,-0.672 0.464,-0.661 0.507,-0.638C0.55,-0.615 0.583,-0.583 0.607,-0.543C0.631,-0.502 0.643,-0.455 0.643,-0.402C0.643,-0.349 0.631,-0.302 0.607,-0.261C0.583,-0.22 0.55,-0.189 0.507,-0.166C0.464,-0.143 0.415,-0.132 0.359,-0.132L0.248,-0.132Z" style="fill:rgb(225,225,225);fill-rule:nonzero;"/>
                </g>
            </g>
            <g transform="matrix(1,0,0,1,1076.06,343.701)">
                <g transform="matrix(208.125,0,0,208.125,0,2.84217e-14)">
                    <path d="M0.182,-0L0.182,-0.804L0.212,-0.804L0.212,-0L0.182,-0ZM0.05,-0L0.05,-0.804L0.08,-0.804L0.08,-0L0.05,-0ZM0.116,-0L0.116,-0.804L0.146,-0.804L0.146,-0L0.116,-0ZM0.248,-0.774L0.248,-0.804L0.647,-0.804L0.647,-0.774L0.248,-0.774ZM0.248,-0.708L0.248,-0.738L0.647,-0.738L0.647,-0.708L0.248,-0.708ZM0.248,-0.642L0.248,-0.672L0.647,-0.672L0.647,-0.642L0.248,-0.642ZM0.248,-0.453L0.248,-0.483L0.59,-0.483L0.59,-0.453L0.248,-0.453ZM0.248,-0.387L0.248,-0.417L0.59,-0.417L0.59,-0.387L0.248,-0.387ZM0.248,-0.321L0.248,-0.351L0.59,-0.351L0.59,-0.321L0.248,-0.321ZM0.248,-0.132L0.248,-0.162L0.647,-0.162L0.647,-0.132L0.248,-0.132ZM0.248,-0.066L0.248,-0.096L0.647,-0.096L0.647,-0.066L0.248,-0.066ZM0.248,-0L0.248,-0.03L0.647,-0.03L0.647,-0L0.248,-0Z" style="fill:rgb(225,225,225);fill-rule:nonzero;"/>
                </g>
            </g>
            <g>
                <g transform="matrix(1.62343,-0.86129,0.971674,1.439,-1368.77,249.148)">
                    <ellipse cx="566.4" cy="338.11" rx="100.5" ry="36" style="fill:none;stroke:rgb(203,246,255);stroke-width:2.93px;"/>
                </g>
                <g transform="matrix(1.62343,-0.86129,0.971674,1.439,-1368.77,249.148)">
                    <ellipse cx="566.4" cy="338.11" rx="100.5" ry="36" style="fill:none;stroke:rgb(203,246,255);stroke-width:2.93px;"/>
                </g>
                <g transform="matrix(0.971674,-1.439,1.62343,0.86129,-1222.99,776.375)">
                    <ellipse cx="568.07" cy="340.91" rx="36" ry="100.5" style="fill:none;stroke:rgb(203,246,255);stroke-width:2.93px;"/>
                </g>
                <g transform="matrix(0.971674,-1.439,1.62343,0.86129,-1222.99,776.375)">
                    <ellipse cx="568.07" cy="340.91" rx="36" ry="100.5" style="fill:none;stroke:rgb(203,246,255);stroke-width:2.93px;"/>
                </g>
                <g transform="matrix(0.971674,-1.439,1.62343,0.86129,-1222.99,776.375)">
                    <ellipse cx="568.07" cy="340.91" rx="36" ry="100.5" style="fill:none;stroke:rgb(203,246,255);stroke-width:2.93px;"/>
                </g>
                <g transform="matrix(0.0577026,-1.67613,1.89094,0.0511475,-796.205,1182.91)">
                    <ellipse cx="566.4" cy="339.91" rx="100.5" ry="36" style="fill:none;stroke:rgb(203,246,255);stroke-width:3.07px;"/>
                </g>
                <g transform="matrix(1.89189,0,0,1.67697,-1192.37,-319.136)">
                    <circle cx="597.83" cy="284.1" r="10.4" style="fill:white;stroke:rgb(203,246,255);stroke-width:3.08px;"/>
                </g>
                <g transform="matrix(1.89189,0,0,1.67697,-1192.37,-319.136)">
                    <circle cx="506.29" cy="338.08" r="10.4" style="fill:white;stroke:rgb(203,246,255);stroke-width:3.08px;"/>
                </g>
                <g transform="matrix(1.89189,0,0,1.67697,-1192.37,-319.136)">
                    <circle cx="597.83" cy="390.63" r="10.4" style="fill:white;stroke:rgb(203,246,255);stroke-width:3.08px;"/>
                </g>
            </g>
            <g transform="matrix(1,0,0,1,-135,157)">
                <g transform="matrix(288,0,0,288,1378.35,183.521)">
                    <path d="M0.106,-0L0.106,-0.082L0.136,-0.082L0.136,-0L0.106,-0ZM0.04,-0L0.04,-0.082L0.07,-0.082L0.07,-0L0.04,-0Z" style="fill:rgb(225,225,225);fill-rule:nonzero;"/>
                </g>
            </g>
        </g>
    </g>
</svg>
